# xmcd
#
# Track frame offsets:
#	150
#	16299
#	34735
#	50526
#	68162
#	82725
#	100056
#	116974
#	134719
#	153235
#
# Disc length: 2281 seconds
#
# Revision: 1
# Processed by: cddbd v1.5.2PL0 Copyright (c) Steve Scherf et al.
# Submitted via: FairStars CD Ripper 1.90
#
DISCID=7e08e70a
DTITLE=Original Filipino Artists - JAM - Himig Handog Sa Makabagong Kabataan
DYEAR=2001
DGENRE=Pop
TTITLE0=17:28 - Network
TTITLE1=Kevin Roy and Cooky Chua - Jam
TTITLE2=Dianne De La Fuente - Kahit Pilitin Pa
TTITLE3=Noel Cabangon at Ang Tropang Papuri - K Naman
TTITLE4=Roselle Nava with Bukas-Palad - Free
TTITLE5=Radha - You Can Make It Happen
TTITLE6=Dingdong Avanzado - Si Eddie
TTITLE7=Mike and Noah - True Luv
TTITLE8=Barbie's Cradle - Someday
TTITLE9=Kyla nd Kaya with V3 - Tara Tena
EXTD=
EXTT0=
EXTT1=
EXTT2=
EXTT3=
EXTT4=
EXTT5=
EXTT6=
EXTT7=
EXTT8=
EXTT9=
PLAYORDER=
